<?xml version="1.0" encoding="UTF-8"?>
<svg xmlns="http://www.w3.org/2000/svg" xmlns:xlink="http://www.w3.org/1999/xlink" width="128pt" height="128pt" viewBox="0 0 128 128" version="1.1">
<g id="surface5001124">
<path style=" stroke:none;fill-rule:nonzero;fill:rgb(25.098039%,12.156863%,41.176471%);fill-opacity:1;" d="M 126.023438 64 C 126.023438 29.75 98.25 1.976562 64 1.976562 C 29.75 1.976562 1.976562 29.75 1.976562 64 C 1.976562 98.25 29.75 126.023438 64 126.023438 C 98.25 126.023438 126.023438 98.25 126.023438 64 Z M 126.023438 64 "/>
<path style=" stroke:none;fill-rule:nonzero;fill:rgb(100%,100%,100%);fill-opacity:1;" d="M 71.25 64 L 89.375 42.949219 C 91.351562 40.648438 91.101562 37.199219 88.800781 35.199219 C 86.5 33.226562 83.050781 33.476562 81.074219 35.773438 L 64 55.601562 L 46.949219 35.800781 C 44.976562 33.5 41.5 33.25 39.199219 35.226562 C 36.898438 37.199219 36.648438 40.675781 38.625 42.976562 L 56.75 64 L 38.625 85.050781 C 36.648438 87.351562 36.898438 90.800781 39.199219 92.800781 C 40.226562 93.699219 41.5 94.125 42.773438 94.125 C 44.324219 94.125 45.851562 93.476562 46.925781 92.226562 L 63.976562 72.425781 L 81.023438 92.226562 C 82.101562 93.476562 83.648438 94.125 85.175781 94.125 C 86.449219 94.125 87.726562 93.699219 88.75 92.800781 C 91.050781 90.824219 91.300781 87.351562 89.324219 85.050781 Z M 71.25 64 "/>
</g>
</svg>
